{
  "accessors": [
    {
      "bufferView": 2,
      "componentType": 5126,
      "count": 306,
      "max": [
        1008.9616088867188,
        852.50543212890625,
        0.6106719970703125
      ],
      "min": [
        -943.17584228515625,
        -989.4400634765625,
        -462.028076171875
      ],
      "type": "VEC3"
    },
    {
      "bufferView": 2,
      "byteOffset": 3672,
      "componentType": 5126,
      "count": 306,
      "max": [
        0.6373215913772583,
        0.65579754114151001,
        0.99890244007110596
      ],
      "min": [
        -0.64128100872039795,
        -0.6695103645324707,
        0.74280273914337158
      ],
      "type": "VEC3"
    },
    {
      "bufferView": 1,
      "componentType": 5126,
      "count": 306,
      "max": [
        0.99999988079071045,
        1
      ],
      "min": [
        -1.1920928955078125e-07,
        2.9802322387695312e-08
      ],
      "type": "VEC2"
    },
    {
      "bufferView": 1,
      "byteOffset": 2448,
      "componentType": 5126,
      "count": 306,
      "max": [
        0.99999988079071045,
        1
      ],
      "min": [
        -1.1920928955078125e-07,
        2.9802322387695312e-08
      ],
      "type": "VEC2"
    },
    {
      "bufferView": 1,
      "byteOffset": 4896,
      "componentType": 5126,
      "count": 306,
      "max": [
        0.97140127420425415,
        0.99950003623962402
      ],
      "min": [
        0.00050000002374872565,
        0.00050000002374872565
      ],
      "type": "VEC2"
    },
    {
      "bufferView": 0,
      "componentType": 5125,
      "count": 804,
      "max": [
        305
      ],
      "min": [
        0
      ],
      "type": "SCALAR"
    },
    {
      "bufferView": 2,
      "byteOffset": 7344,
      "componentType": 5126,
      "count": 65532,
      "max": [
        250.04388427734375,
        146.51593017578125,
        269.80352783203125
      ],
      "min": [
        -233.9798583984375,
        -480.52914428710938,
        -369.56808471679688
      ],
      "type": "VEC3"
    },
    {
      "bufferView": 2,
      "byteOffset": 793728,
      "componentType": 5126,
      "count": 65532,
      "max": [
        0.99996000528335571,
        0.99994242191314697,
        1
      ],
      "min": [
        -0.99999994039535522,
        -0.99986815452575684,
        -0.99988347291946411
      ],
      "type": "VEC3"
    },
    {
      "bufferView": 1,
      "byteOffset": 7344,
      "componentType": 5126,
      "count": 65532,
      "max": [
        1,
        1.0001916885375977
      ],
      "min": [
        -0.20771615207195282,
        -0.00030162814073264599
      ],
      "type": "VEC2"
    },
    {
      "bufferView": 1,
      "byteOffset": 531600,
      "componentType": 5126,
      "count": 65532,
      "max": [
        0.99488592147827148,
        0.99270325899124146
      ],
      "min": [
        0.0088431984186172485,
        0.0066899452358484268
      ],
      "type": "VEC2"
    },
    {
      "bufferView": 0,
      "byteOffset": 3216,
      "componentType": 5125,
      "count": 148197,
      "max": [
        65531
      ],
      "min": [
        0
      ],
      "type": "SCALAR"
    },
    {
      "bufferView": 2,
      "byteOffset": 1580112,
      "componentType": 5126,
      "count": 65532,
      "max": [
        267.06414794921875,
        171.12104797363281,
        255.23965454101562
      ],
      "min": [
        -455.83328247070312,
        -451.57205200195312,
        -485.29632568359375
      ],
      "type": "VEC3"
    },
    {
      "bufferView": 2,
      "byteOffset": 2366496,
      "componentType": 5126,
      "count": 65532,
      "max": [
        0.9999808669090271,
        0.99943023920059204,
        0.99987000226974487
      ],
      "min": [
        -0.99997276067733765,
        -0.99952530860900879,
        -0.99984323978424072
      ],
      "type": "VEC3"
    },
    {
      "bufferView": 1,
      "byteOffset": 1055856,
      "componentType": 5126,
      "count": 65532,
      "max": [
        1,
        1.0001916885375977
      ],
      "min": [
        -0.0010228473693132401,
        -0.00030220695771276951
      ],
      "type": "VEC2"
    },
    {
      "bufferView": 1,
      "byteOffset": 1580112,
      "componentType": 5126,
      "count": 65532,
      "max": [
        0.99480360746383667,
        0.99270755052566528
      ],
      "min": [
        0.011964775621891022,
        0.0066899452358484268
      ],
      "type": "VEC2"
    },
    {
      "bufferView": 0,
      "byteOffset": 596004,
      "componentType": 5125,
      "count": 154530,
      "max": [
        65531
      ],
      "min": [
        0
      ],
      "type": "SCALAR"
    },
    {
      "bufferView": 2,
      "byteOffset": 3152880,
      "componentType": 5126,
      "count": 65533,
      "max": [
        234.21440124511719,
        469.37265014648438,
        496.45794677734375
      ],
      "min": [
        -352.71881103515625,
        -546.32470703125,
        -436.62350463867188
      ],
      "type": "VEC3"
    },
    {
      "bufferView": 2,
      "byteOffset": 3939276,
      "componentType": 5126,
      "count": 65533,
      "max": [
        0.999977707862854,
        0.99995225667953491,
        0.99997395277023315
      ],
      "min": [
        -0.99987298250198364,
        -0.99955481290817261,
        -0.99995791912078857
      ],
      "type": "VEC3"
    },
    {
      "bufferView": 1,
      "byteOffset": 2104368,
      "componentType": 5126,
      "count": 65533,
      "max": [
        1.0027458667755127,
        1.0001916885375977
      ],
      "min": [
        -0.0010228473693132401,
        -0.00033481116406619549
      ],
      "type": "VEC2"
    },
    {
      "bufferView": 1,
      "byteOffset": 2628632,
      "componentType": 5126,
      "count": 65533,
      "max": [
        0.99488568305969238,
        0.98033088445663452
      ],
      "min": [
        0.011964775621891022,
        0.0098114199936389923
      ],
      "type": "VEC2"
    },
    {
      "bufferView": 0,
      "byteOffset": 1214124,
      "componentType": 5125,
      "count": 154347,
      "max": [
        65532
      ],
      "min": [
        0
      ],
      "type": "SCALAR"
    },
    {
      "bufferView": 2,
      "byteOffset": 4725672,
      "componentType": 5126,
      "count": 26090,
      "max": [
        137.79046630859375,
        -23.665830612182617,
        -1.5398399829864502
      ],
      "min": [
        -275.93649291992188,
        -568.37725830078125,
        -425.43441772460938
      ],
      "type": "VEC3"
    },
    {
      "bufferView": 2,
      "byteOffset": 5038752,
      "componentType": 5126,
      "count": 26090,
      "max": [
        0.99970662593841553,
        0.99994617700576782,
        0.99991041421890259
      ],
      "min": [
        -0.99996155500411987,
        -0.99983620643615723,
        -0.99993008375167847
      ],
      "type": "VEC3"
    },
    {
      "bufferView": 1,
      "byteOffset": 3152896,
      "componentType": 5126,
      "count": 26090,
      "max": [
        1,
        0.87898087501525879
      ],
      "min": [
        0.0032456517219543457,
        0.091445907950401306
      ],
      "type": "VEC2"
    },
    {
      "bufferView": 1,
      "byteOffset": 3361616,
      "componentType": 5126,
      "count": 26090,
      "max": [
        0.99392223358154297,
        0.99124735593795776
      ],
      "min": [
        0.011964775621891022,
        0.0098114199936389923
      ],
      "type": "VEC2"
    },
    {
      "bufferView": 0,
      "byteOffset": 1831512,
      "componentType": 5125,
      "count": 64527,
      "max": [
        26089
      ],
      "min": [
        0
      ],
      "type": "SCALAR"
    },
    {
      "bufferView": 2,
      "byteOffset": 5351832,
      "componentType": 5126,
      "count": 90,
      "max": [
        278.512451171875,
        263.17221069335938,
        -8.3342399597167969
      ],
      "min": [
        -278.512451171875,
        -263.17221069335938,
        -61.864547729492188
      ],
      "type": "VEC3"
    },
    {
      "bufferView": 2,
      "byteOffset": 5352912,
      "componentType": 5126,
      "count": 90,
      "max": [
        0.35375076532363892,
        0.36109361052513123,
        0.99889039993286133
      ],
      "min": [
        -0.35375061631202698,
        -0.3610934317111969,
        0.93048751354217529
      ],
      "type": "VEC3"
    },
    {
      "bufferView": 1,
      "byteOffset": 3570336,
      "componentType": 5126,
      "count": 90,
      "max": [
        1,
        1
      ],
      "min": [
        0,
        0
      ],
      "type": "VEC2"
    },
    {
      "bufferView": 0,
      "byteOffset": 2089620,
      "componentType": 5125,
      "count": 480,
      "max": [
        89
      ],
      "min": [
        0
      ],
      "type": "SCALAR"
    },
    {
      "bufferView": 2,
      "byteOffset": 5353992,
      "componentType": 5126,
      "count": 203,
      "max": [
        1352.7083740234375,
        878.64453125,
        1045.5777587890625
      ],
      "min": [
        -1537.7467041015625,
        -1392.321533203125,
        -1583.6358642578125
      ],
      "type": "VEC3"
    },
    {
      "bufferView": 2,
      "byteOffset": 5356428,
      "componentType": 5126,
      "count": 203,
      "max": [
        0.98390877246856689,
        0.45677408576011658,
        0.7341611385345459
      ],
      "min": [
        -0.98785948753356934,
        -0.99467527866363525,
        -0.99261832237243652
      ],
      "type": "VEC3"
    },
    {
      "bufferView": 1,
      "byteOffset": 3571056,
      "componentType": 5126,
      "count": 203,
      "max": [
        1.0017086267471313,
        0.99747920036315918
      ],
      "min": [
        0.0068587213754653931,
        0.0039433254860341549
      ],
      "type": "VEC2"
    },
    {
      "bufferView": 0,
      "byteOffset": 2091540,
      "componentType": 5125,
      "count": 792,
      "max": [
        202
      ],
      "min": [
        0
      ],
      "type": "SCALAR"
    },
    {
      "bufferView": 2,
      "byteOffset": 5358864,
      "componentType": 5126,
      "count": 72,
      "max": [
        1130.615478515625,
        961.7298583984375,
        -136.21479797363281
      ],
      "min": [
        -1056.3980712890625,
        -1101.8333740234375,
        -152.18618774414062
      ],
      "type": "VEC3"
    },
    {
      "bufferView": 2,
      "byteOffset": 5359728,
      "componentType": 5126,
      "count": 72,
      "max": [
        0.027885047718882561,
        0.033952515572309494,
        1
      ],
      "min": [
        -0.021621916443109512,
        -0.020954111590981483,
        0.99941480159759521
      ],
      "type": "VEC3"
    },
    {
      "bufferView": 1,
      "byteOffset": 3572680,
      "componentType": 5126,
      "count": 72,
      "max": [
        0.99038100242614746,
        0.97449111938476562
      ],
      "min": [
        0.0096492534503340721,
        0.025508036836981773
      ],
      "type": "VEC2"
    },
    {
      "bufferView": 1,
      "byteOffset": 3573256,
      "componentType": 5126,
      "count": 72,
      "max": [
        0.99038100242614746,
        0.97449111938476562
      ],
      "min": [
        0.0096492534503340721,
        0.025508036836981773
      ],
      "type": "VEC2"
    },
    {
      "bufferView": 1,
      "byteOffset": 3573832,
      "componentType": 5126,
      "count": 72,
      "max": [
        0.97140127420425415,
        0.99950003623962402
      ],
      "min": [
        0.00050000002374872565,
        0.00050000002374872565
      ],
      "type": "VEC2"
    },
    {
      "bufferView": 0,
      "byteOffset": 2094708,
      "componentType": 5125,
      "count": 108,
      "max": [
        71
      ],
      "min": [
        0
      ],
      "type": "SCALAR"
    }
  ],
  "asset": {
    "extras": {
      "author": "SilkevdSmissen (https://sketchfab.com/SilkevdSmissen)",
      "license": "CC-BY-NC-ND-4.0 (http://creativecommons.org/licenses/by-nc-nd/4.0/)",
      "source": "https://sketchfab.com/3d-models/home-of-an-exiled-seeress-00a13e9dd04c4c53856ee263ab54ed8f",
      "title": "Home of an Exiled Seeress"
    },
    "generator": "Sketchfab-8.72.2",
    "version": "2.0"
  },
  "bufferViews": [
    {
      "buffer": 0,
      "byteLength": 2095140,
      "byteOffset": 0,
      "name": "floatBufferViews",
      "target": 34963
    },
    {
      "buffer": 0,
      "byteLength": 3574408,
      "byteOffset": 2095140,
      "byteStride": 8,
      "name": "floatBufferViews",
      "target": 34962
    },
    {
      "buffer": 0,
      "byteLength": 5360592,
      "byteOffset": 5669548,
      "byteStride": 12,
      "name": "floatBufferViews",
      "target": 34962
    }
  ],
  "buffers": [
    {
      "byteLength": 11030140,
      "uri": "scene.bin"
    }
  ],
  "images": [
    {
      "uri": "textures/03_-_Default_baseColor.jpeg"
    },
    {
      "uri": "textures/01_-_Default_baseColor.jpeg"
    },
    {
      "uri": "textures/01_-_Default_emissive.jpeg"
    },
    {
      "uri": "textures/09_-_Default_emissive.jpeg"
    },
    {
      "uri": "textures/02_-_Default_emissive.jpeg"
    },
    {
      "uri": "textures/10_-_Default_baseColor.png"
    }
  ],
  "materials": [
    {
      "doubleSided": true,
      "name": "03_-_Default",
      "pbrMetallicRoughness": {
        "baseColorFactor": [
          1,
          1,
          1,
          1
        ],
        "baseColorTexture": {
          "index": 0,
          "texCoord": 0
        },
        "metallicFactor": 0,
        "roughnessFactor": 0.59999999999999998
      }
    },
    {
      "doubleSided": true,
      "emissiveFactor": [
        1,
        1,
        1
      ],
      "emissiveTexture": {
        "index": 2,
        "texCoord": 0
      },
      "name": "01_-_Default",
      "pbrMetallicRoughness": {
        "baseColorFactor": [
          1,
          1,
          1,
          1
        ],
        "baseColorTexture": {
          "index": 1,
          "texCoord": 0
        },
        "metallicFactor": 0,
        "roughnessFactor": 0.59999999999999998
      }
    },
    {
      "doubleSided": true,
      "emissiveFactor": [
        1,
        1,
        1
      ],
      "emissiveTexture": {
        "index": 3,
        "texCoord": 0
      },
      "name": "09_-_Default",
      "pbrMetallicRoughness": {
        "baseColorFactor": [
          0.022943383605197348,
          0.038203414152802782,
          0.061168677160403105,
          1
        ],
        "metallicFactor": 0,
        "roughnessFactor": 0.59999999999999998
      }
    },
    {
      "doubleSided": false,
      "emissiveFactor": [
        1,
        1,
        1
      ],
      "emissiveTexture": {
        "index": 4,
        "texCoord": 0
      },
      "name": "02_-_Default",
      "pbrMetallicRoughness": {
        "metallicFactor": 0,
        "roughnessFactor": 0.59999999999999998
      }
    },
    {
      "alphaMode": "BLEND",
      "doubleSided": true,
      "name": "10_-_Default",
      "pbrMetallicRoughness": {
        "baseColorFactor": [
          0.087091976979720556,
          0.12588743966426366,
          0.24383786812995031,
          1
        ],
        "baseColorTexture": {
          "index": 5,
          "texCoord": 0
        },
        "metallicFactor": 0,
        "roughnessFactor": 0.59999999999999998
      }
    }
  ],
  "meshes": [
    {
      "name": "Cylinder019_03 - Default_0",
      "primitives": [
        {
          "attributes": {
            "NORMAL": 1,
            "POSITION": 0,
            "TEXCOORD_0": 2,
            "TEXCOORD_1": 3,
            "TEXCOORD_2": 4
          },
          "indices": 5,
          "material": 0,
          "mode": 4
        }
      ]
    },
    {
      "name": "Plane024_01 - Default_0",
      "primitives": [
        {
          "attributes": {
            "NORMAL": 7,
            "POSITION": 6,
            "TEXCOORD_0": 8,
            "TEXCOORD_1": 9
          },
          "indices": 10,
          "material": 1,
          "mode": 4
        }
      ]
    },
    {
      "name": "Plane024_01 - Default_0",
      "primitives": [
        {
          "attributes": {
            "NORMAL": 12,
            "POSITION": 11,
            "TEXCOORD_0": 13,
            "TEXCOORD_1": 14
          },
          "indices": 15,
          "material": 1,
          "mode": 4
        }
      ]
    },
    {
      "name": "Plane024_01 - Default_0",
      "primitives": [
        {
          "attributes": {
            "NORMAL": 17,
            "POSITION": 16,
            "TEXCOORD_0": 18,
            "TEXCOORD_1": 19
          },
          "indices": 20,
          "material": 1,
          "mode": 4
        }
      ]
    },
    {
      "name": "Plane024_01 - Default_0",
      "primitives": [
        {
          "attributes": {
            "NORMAL": 22,
            "POSITION": 21,
            "TEXCOORD_0": 23,
            "TEXCOORD_1": 24
          },
          "indices": 25,
          "material": 1,
          "mode": 4
        }
      ]
    },
    {
      "name": "Cylinder039_09 - Default_0",
      "primitives": [
        {
          "attributes": {
            "NORMAL": 27,
            "POSITION": 26,
            "TEXCOORD_0": 28
          },
          "indices": 29,
          "material": 2,
          "mode": 4
        }
      ]
    },
    {
      "name": "Object234_02 - Default_0",
      "primitives": [
        {
          "attributes": {
            "NORMAL": 31,
            "POSITION": 30,
            "TEXCOORD_0": 32
          },
          "indices": 33,
          "material": 3,
          "mode": 4
        }
      ]
    },
    {
      "name": "Object235_10 - Default_0",
      "primitives": [
        {
          "attributes": {
            "NORMAL": 35,
            "POSITION": 34,
            "TEXCOORD_0": 36,
            "TEXCOORD_1": 37,
            "TEXCOORD_2": 38
          },
          "indices": 39,
          "material": 4,
          "mode": 4
        }
      ]
    }
  ],
  "nodes": [
    {
      "children": [
        1
      ],
      "name": "RootNode (gltf orientation matrix)",
      "rotation": [
        -0.70710678118654746,
        -0,
        -0,
        0.70710678118654757
      ]
    },
    {
      "children": [
        2
      ],
      "matrix": [
        1,
        0,
        0,
        0,
        0,
        1,
        0,
        0,
        0,
        0,
        1,
        0,
        1.2288814783096313,
        -0.24667574465274811,
        0,
        1
      ],
      "name": "RootNode (model correction matrix)"
    },
    {
      "children": [
        3
      ],
      "matrix": [
        1,
        0,
        0,
        0,
        0,
        0,
        1,
        0,
        0,
        -1,
        0,
        0,
        0,
        0,
        0,
        1
      ],
      "name": "f340cec87c1a47d6bc08b8d88280c75a.fbx"
    },
    {
      "children": [
        4,
        7,
        12,
        14,
        16
      ],
      "name": "RootNode"
    },
    {
      "children": [
        5
      ],
      "matrix": [
        0.30780899524688721,
        0,
        0,
        0,
        0,
        7.0091268318689008e-17,
        -0.31566300988197327,
        0,
        0,
        0.178616002202034,
        3.9660719642239161e-17,
        0,
        486.62347412109375,
        -99.766494750976562,
        19.763225555419922,
        1
      ],
      "name": "Cylinder019"
    },
    {
      "children": [
        6
      ],
      "matrix": [
        1,
        0,
        -0,
        0,
        0,
        1,
        0,
        0,
        0,
        0,
        1,
        0,
        0,
        35.177082061767578,
        39.305896759033203,
        1
      ],
      "name": ""
    },
    {
      "mesh": 0,
      "name": "Cylinder019_03 - Default_0"
    },
    {
      "children": [
        8,
        9,
        10,
        11
      ],
      "matrix": [
        0.99619471991402908,
        0.015134233975989578,
        0.085831433504102828,
        0,
        0.036833629447004655,
        0.81943144238423704,
        -0.5719924780745369,
        0,
        -0.078989643353859829,
        0.57297736970499002,
        0.81575582746847797,
        0,
        569.36199951171875,
        388.52932739257812,
        8.6696910858154297,
        1
      ],
      "name": "Plane024"
    },
    {
      "mesh": 1,
      "name": "Plane024_01 - Default_0"
    },
    {
      "mesh": 2,
      "name": "Plane024_01 - Default_0"
    },
    {
      "mesh": 3,
      "name": "Plane024_01 - Default_0"
    },
    {
      "mesh": 4,
      "name": "Plane024_01 - Default_0"
    },
    {
      "children": [
        13
      ],
      "matrix": [
        5.4052791595458984,
        0,
        0,
        0,
        0,
        1.2308356458747222e-15,
        -5.5431909561157227,
        0,
        0,
        3.0399870872497559,
        6.7501273176556872e-16,
        0,
        488.67132568359375,
        -107.09212493896484,
        5.2738895416259766,
        1
      ],
      "name": "Cylinder039"
    },
    {
      "mesh": 5,
      "name": "Cylinder039_09 - Default_0"
    },
    {
      "children": [
        15
      ],
      "matrix": [
        0.99619471991402908,
        0.015134233975989585,
        0.085831433504102814,
        0,
        0.036833622889958464,
        0.81943148994792536,
        -0.57199241035744819,
        0,
        -0.078989646411473116,
        0.57297730168278316,
        0.81575587495040902,
        0,
        569.36199951171875,
        388.52932739257812,
        8.6696910858154297,
        1
      ],
      "name": "Object234"
    },
    {
      "mesh": 6,
      "name": "Object234_02 - Default_0"
    },
    {
      "children": [
        17
      ],
      "matrix": [
        0.30780899524688721,
        0,
        0,
        0,
        0,
        7.0091268318689008e-17,
        -0.31566300988197327,
        0,
        0,
        0.178616002202034,
        3.9660719642239161e-17,
        0,
        486.62347412109375,
        -113.34461975097656,
        19.763225555419922,
        1
      ],
      "name": "Object235"
    },
    {
      "children": [
        18
      ],
      "matrix": [
        1,
        0,
        -0,
        0,
        0,
        1,
        0,
        0,
        0,
        0,
        1,
        0,
        0,
        35.177082061767578,
        39.305896759033203,
        1
      ],
      "name": ""
    },
    {
      "mesh": 7,
      "name": "Object235_10 - Default_0"
    }
  ],
  "samplers": [
    {
      "magFilter": 9729,
      "minFilter": 9987,
      "wrapS": 10497,
      "wrapT": 10497
    }
  ],
  "scene": 0,
  "scenes": [
    {
      "name": "OSG_Scene",
      "nodes": [
        0
      ]
    }
  ],
  "textures": [
    {
      "sampler": 0,
      "source": 0
    },
    {
      "sampler": 0,
      "source": 1
    },
    {
      "sampler": 0,
      "source": 2
    },
    {
      "sampler": 0,
      "source": 3
    },
    {
      "sampler": 0,
      "source": 4
    },
    {
      "sampler": 0,
      "source": 5
    }
  ]
}

