{
  "accessors": [
    {
      "bufferView": 2,
      "componentType": 5126,
      "count": 65532,
      "max": [
        144.07240295410156,
        36.533039093017578,
        16.77593994140625
      ],
      "min": [
        -92.584152221679688,
        -2.5155110359191895,
        -167.6593017578125
      ],
      "type": "VEC3"
    },
    {
      "bufferView": 2,
      "byteOffset": 786384,
      "componentType": 5126,
      "count": 65532,
      "max": [
        1,
        1,
        1
      ],
      "min": [
        -1,
        -1,
        -1
      ],
      "type": "VEC3"
    },
    {
      "bufferView": 1,
      "componentType": 5126,
      "count": 65532,
      "max": [
        18.766399383544922,
        24.594509124755859
      ],
      "min": [
        0.0041683758608996868,
        0.043461829423904419
      ],
      "type": "VEC2"
    },
    {
      "bufferView": 0,
      "componentType": 5125,
      "count": 104757,
      "max": [
        65531
      ],
      "min": [
        0
      ],
      "type": "SCALAR"
    },
    {
      "bufferView": 2,
      "byteOffset": 1572768,
      "componentType": 5126,
      "count": 65532,
      "max": [
        66.311874389648438,
        42.890270233154297,
        16.888860702514648
      ],
      "min": [
        -102.50509643554688,
        -2.5156056880950928,
        -113.71399688720703
      ],
      "type": "VEC3"
    },
    {
      "bufferView": 2,
      "byteOffset": 2359152,
      "componentType": 5126,
      "count": 65532,
      "max": [
        1,
        1,
        1
      ],
      "min": [
        -1,
        -1,
        -1
      ],
      "type": "VEC3"
    },
    {
      "bufferView": 1,
      "byteOffset": 524256,
      "componentType": 5126,
      "count": 65532,
      "max": [
        18.766399383544922,
        24.594509124755859
      ],
      "min": [
        0.0041683758608996868,
        0.043461829423904419
      ],
      "type": "VEC2"
    },
    {
      "bufferView": 0,
      "byteOffset": 419028,
      "componentType": 5125,
      "count": 106251,
      "max": [
        65531
      ],
      "min": [
        0
      ],
      "type": "SCALAR"
    },
    {
      "bufferView": 2,
      "byteOffset": 3145536,
      "componentType": 5126,
      "count": 33359,
      "max": [
        144.07234191894531,
        42.890281677246094,
        16.888833999633789
      ],
      "min": [
        -102.50514984130859,
        -1.4117554426193237,
        -167.65925598144531
      ],
      "type": "VEC3"
    },
    {
      "bufferView": 2,
      "byteOffset": 3545844,
      "componentType": 5126,
      "count": 33359,
      "max": [
        1,
        1,
        1
      ],
      "min": [
        -1,
        -1,
        -1
      ],
      "type": "VEC3"
    },
    {
      "bufferView": 1,
      "byteOffset": 1048512,
      "componentType": 5126,
      "count": 33359,
      "max": [
        0.99603557586669922,
        0.97893261909484863
      ],
      "min": [
        0.0048269918188452721,
        0.052685260772705078
      ],
      "type": "VEC2"
    },
    {
      "bufferView": 0,
      "byteOffset": 844032,
      "componentType": 5125,
      "count": 53634,
      "max": [
        33358
      ],
      "min": [
        0
      ],
      "type": "SCALAR"
    },
    {
      "bufferView": 2,
      "byteOffset": 3946152,
      "componentType": 5126,
      "count": 2548,
      "max": [
        93.487411499023438,
        9.7583589553833008,
        -34.409961700439453
      ],
      "min": [
        67.754661560058594,
        -5.0106024742126465,
        -69.719749450683594
      ],
      "type": "VEC3"
    },
    {
      "bufferView": 2,
      "byteOffset": 3976728,
      "componentType": 5126,
      "count": 2548,
      "max": [
        0.99911201000213623,
        0.99968594312667847,
        0.99880266189575195
      ],
      "min": [
        -0.99925321340560913,
        -0.99968594312667847,
        -0.99851793050765991
      ],
      "type": "VEC3"
    },
    {
      "bufferView": 1,
      "byteOffset": 1315384,
      "componentType": 5126,
      "count": 2548,
      "max": [
        0.66263377666473389,
        0.6074373722076416
      ],
      "min": [
        0.63927179574966431,
        0.29829961061477661
      ],
      "type": "VEC2"
    },
    {
      "bufferView": 0,
      "byteOffset": 1058568,
      "componentType": 5125,
      "count": 3636,
      "max": [
        2547
      ],
      "min": [
        0
      ],
      "type": "SCALAR"
    }
  ],
  "asset": {
    "extras": {
      "author": "Johannes Nienaber (https://sketchfab.com/Johannesnienaber)",
      "license": "CC-BY-SA-4.0 (http://creativecommons.org/licenses/by-sa/4.0/)",
      "source": "https://sketchfab.com/3d-models/polygonal-foliage-asset-package-e3c1a1a51788440c9c26c155e6b40f8f",
      "title": "Polygonal Foliage Asset Package"
    },
    "generator": "Sketchfab-8.25.0",
    "version": "2.0"
  },
  "bufferViews": [
    {
      "buffer": 0,
      "byteLength": 1073112,
      "byteOffset": 0,
      "name": "floatBufferViews",
      "target": 34963
    },
    {
      "buffer": 0,
      "byteLength": 1335768,
      "byteOffset": 1073112,
      "byteStride": 8,
      "name": "floatBufferViews",
      "target": 34962
    },
    {
      "buffer": 0,
      "byteLength": 4007304,
      "byteOffset": 2408880,
      "byteStride": 12,
      "name": "floatBufferViews",
      "target": 34962
    }
  ],
  "buffers": [
    {
      "byteLength": 6416184,
      "uri": "scene.bin"
    }
  ],
  "images": [
    {
      "uri": "textures/material_baseColor.png"
    }
  ],
  "materials": [
    {
      "doubleSided": true,
      "name": "material",
      "pbrMetallicRoughness": {
        "baseColorFactor": [
          1,
          1,
          1,
          1
        ],
        "baseColorTexture": {
          "index": 0,
          "texCoord": 0
        },
        "metallicFactor": 0.29999999999999999,
        "roughnessFactor": 0.82394172574614266
      }
    },
    {
      "alphaMode": "BLEND",
      "doubleSided": true,
      "name": "material_1",
      "pbrMetallicRoughness": {
        "baseColorFactor": [
          1,
          1,
          1,
          0.5
        ],
        "baseColorTexture": {
          "index": 0,
          "texCoord": 0
        },
        "metallicFactor": 0,
        "roughnessFactor": 0.19999999999999996
      }
    }
  ],
  "meshes": [
    {
      "name": "combined_assets_1_1_0",
      "primitives": [
        {
          "attributes": {
            "NORMAL": 1,
            "POSITION": 0,
            "TEXCOORD_0": 2
          },
          "indices": 3,
          "material": 0,
          "mode": 4
        }
      ]
    },
    {
      "name": "combined_assets_1_1_0",
      "primitives": [
        {
          "attributes": {
            "NORMAL": 5,
            "POSITION": 4,
            "TEXCOORD_0": 6
          },
          "indices": 7,
          "material": 0,
          "mode": 4
        }
      ]
    },
    {
      "name": "combined_assets_1_1_0",
      "primitives": [
        {
          "attributes": {
            "NORMAL": 9,
            "POSITION": 8,
            "TEXCOORD_0": 10
          },
          "indices": 11,
          "material": 0,
          "mode": 4
        }
      ]
    },
    {
      "name": "combined_assets_1_2_0",
      "primitives": [
        {
          "attributes": {
            "NORMAL": 13,
            "POSITION": 12,
            "TEXCOORD_0": 14
          },
          "indices": 15,
          "material": 1,
          "mode": 4
        }
      ]
    }
  ],
  "nodes": [
    {
      "children": [
        1
      ],
      "name": "RootNode (gltf orientation matrix)",
      "rotation": [
        -0.70710678118654746,
        -0,
        -0,
        0.70710678118654757
      ]
    },
    {
      "children": [
        2
      ],
      "matrix": [
        0.0018151385011151433,
        0,
        0,
        0,
        0,
        0.0018151385011151433,
        0,
        0,
        0,
        0,
        0.0018151385011151433,
        0,
        0,
        0,
        0,
        1
      ],
      "name": "RootNode (model correction matrix)"
    },
    {
      "children": [
        3
      ],
      "matrix": [
        1,
        0,
        0,
        0,
        0,
        0,
        1,
        0,
        0,
        -1,
        0,
        0,
        0,
        0,
        0,
        1
      ],
      "name": "combined_assets_1.fbx"
    },
    {
      "children": [
        4
      ],
      "name": "RootNode"
    },
    {
      "children": [
        5,
        6,
        7,
        8
      ],
      "matrix": [
        100,
        0,
        0,
        0,
        0,
        99.999999999998664,
        1.6292067073209114e-05,
        0,
        0,
        -1.6292067073209114e-05,
        99.999999999998664,
        0,
        0,
        0,
        0,
        1
      ],
      "name": "combined_assets_1"
    },
    {
      "mesh": 0,
      "name": "combined_assets_1_1_0"
    },
    {
      "mesh": 1,
      "name": "combined_assets_1_1_0"
    },
    {
      "mesh": 2,
      "name": "combined_assets_1_1_0"
    },
    {
      "mesh": 3,
      "name": "combined_assets_1_2_0"
    }
  ],
  "samplers": [
    {
      "magFilter": 9729,
      "minFilter": 9987,
      "wrapS": 10497,
      "wrapT": 10497
    }
  ],
  "scene": 0,
  "scenes": [
    {
      "name": "OSG_Scene",
      "nodes": [
        0
      ]
    }
  ],
  "textures": [
    {
      "sampler": 0,
      "source": 0
    }
  ]
}

