{
  "accessors": [
    {
      "bufferView": 3,
      "componentType": 5126,
      "count": 4210,
      "max": [
        106.11334228515625,
        50,
        143.32337951660156
      ],
      "min": [
        -106.10830688476562,
        -55.9830322265625,
        0
      ],
      "type": "VEC3"
    },
    {
      "bufferView": 3,
      "byteOffset": 50520,
      "componentType": 5126,
      "count": 4210,
      "max": [
        1,
        1,
        1
      ],
      "min": [
        -1,
        -1,
        -1
      ],
      "type": "VEC3"
    },
    {
      "bufferView": 4,
      "componentType": 5126,
      "count": 4210,
      "max": [
        1,
        1,
        1,
        1
      ],
      "min": [
        -1,
        -1,
        -1,
        1
      ],
      "type": "VEC4"
    },
    {
      "bufferView": 4,
      "byteOffset": 67360,
      "componentType": 5126,
      "count": 4210,
      "max": [
        0.32549020648002625,
        0.44705882668495178,
        0.50980395078659058,
        1
      ],
      "min": [
        0.23137255012989044,
        0.21176470816135406,
        0.21176470816135406,
        1
      ],
      "type": "VEC4"
    },
    {
      "bufferView": 2,
      "componentType": 5126,
      "count": 4210,
      "max": [
        0.99855369329452515,
        0.99999499320983887
      ],
      "min": [
        5.0306830416957382e-06,
        5.032205990573857e-06
      ],
      "type": "VEC2"
    },
    {
      "bufferView": 1,
      "componentType": 5125,
      "count": 12852,
      "max": [
        4209
      ],
      "min": [
        0
      ],
      "type": "SCALAR"
    },
    {
      "bufferView": 3,
      "byteOffset": 101040,
      "componentType": 5126,
      "count": 422,
      "max": [
        95.500007629394531,
        45.052536010742188,
        139.93374633789062
      ],
      "min": [
        -95.500007629394531,
        -45.052536010742188,
        11.250000953674316
      ],
      "type": "VEC3"
    },
    {
      "bufferView": 3,
      "byteOffset": 106104,
      "componentType": 5126,
      "count": 422,
      "max": [
        1,
        1,
        1
      ],
      "min": [
        -1,
        -1,
        -1
      ],
      "type": "VEC3"
    },
    {
      "bufferView": 4,
      "byteOffset": 134720,
      "componentType": 5126,
      "count": 422,
      "max": [
        1,
        1,
        1,
        1
      ],
      "min": [
        -1,
        -0.022424204275012016,
        -1,
        -1
      ],
      "type": "VEC4"
    },
    {
      "bufferView": 4,
      "byteOffset": 141472,
      "componentType": 5126,
      "count": 422,
      "max": [
        0.23921568691730499,
        0.25098040699958801,
        0.21568627655506134,
        1
      ],
      "min": [
        0.23137255012989044,
        0.23921568691730499,
        0.20000000298023224,
        1
      ],
      "type": "VEC4"
    },
    {
      "bufferView": 2,
      "byteOffset": 33680,
      "componentType": 5126,
      "count": 422,
      "max": [
        0.99999499320983887,
        0.99999499320983887
      ],
      "min": [
        5.0306830416957382e-06,
        5.032205990573857e-06
      ],
      "type": "VEC2"
    },
    {
      "bufferView": 1,
      "byteOffset": 51408,
      "componentType": 5125,
      "count": 912,
      "max": [
        421
      ],
      "min": [
        0
      ],
      "type": "SCALAR"
    },
    {
      "bufferView": 5,
      "componentType": 5126,
      "count": 3,
      "max": [
        1,
        0,
        1.2246468525851679e-16,
        0,
        1.2246468525851679e-16,
        1,
        1,
        0,
        0,
        1,
        1,
        0,
        1.2139846419789713e-12,
        0,
        49.5,
        1
      ],
      "min": [
        -1,
        -1.4210854715202004e-14,
        -2.3841856489070778e-07,
        0,
        0,
        -1,
        0,
        0,
        -2.3841856489070778e-07,
        0,
        -5.6782185154985107e-14,
        0,
        0,
        -85,
        0,
        1
      ],
      "type": "MAT4"
    },
    {
      "bufferView": 0,
      "componentType": 5123,
      "count": 4210,
      "max": [
        2,
        1,
        1,
        1
      ],
      "min": [
        1,
        1,
        1,
        1
      ],
      "type": "VEC4"
    },
    {
      "bufferView": 4,
      "byteOffset": 148224,
      "componentType": 5126,
      "count": 4210,
      "max": [
        1,
        0,
        0,
        0
      ],
      "min": [
        1,
        0,
        0,
        0
      ],
      "type": "VEC4"
    },
    {
      "bufferView": 0,
      "byteOffset": 33680,
      "componentType": 5123,
      "count": 422,
      "max": [
        2,
        2,
        2,
        2
      ],
      "min": [
        1,
        2,
        2,
        2
      ],
      "type": "VEC4"
    },
    {
      "bufferView": 4,
      "byteOffset": 215584,
      "componentType": 5126,
      "count": 422,
      "max": [
        1,
        0,
        0,
        0
      ],
      "min": [
        1,
        0,
        0,
        0
      ],
      "type": "VEC4"
    },
    {
      "bufferView": 6,
      "componentType": 5126,
      "count": 4,
      "max": [
        1.9666666984558105
      ],
      "min": [
        0
      ],
      "type": "SCALAR"
    },
    {
      "bufferView": 7,
      "componentType": 5126,
      "count": 4,
      "max": [
        1,
        1,
        0.99999994039535522
      ],
      "min": [
        1,
        0.99999994039535522,
        0.99999988079071045
      ],
      "type": "VEC3"
    },
    {
      "bufferView": 6,
      "byteOffset": 16,
      "componentType": 5126,
      "count": 114,
      "max": [
        1.9666666984558105
      ],
      "min": [
        0
      ],
      "type": "SCALAR"
    },
    {
      "bufferView": 8,
      "componentType": 5126,
      "count": 114,
      "max": [
        0.7071068286895752,
        -8.4293695579162886e-08,
        8.4293702684590244e-08,
        1
      ],
      "min": [
        -6.7179414031670603e-08,
        -1.1920927533992653e-07,
        -8.0084136072850268e-15,
        0.70710670948028564
      ],
      "type": "VEC4"
    },
    {
      "bufferView": 6,
      "byteOffset": 472,
      "componentType": 5126,
      "count": 1,
      "max": [
        0
      ],
      "min": [
        0
      ],
      "type": "SCALAR"
    },
    {
      "bufferView": 8,
      "byteOffset": 1824,
      "componentType": 5126,
      "count": 1,
      "max": [
        0,
        0,
        1,
        6.1232342629258393e-17
      ],
      "min": [
        0,
        0,
        1,
        6.1232342629258393e-17
      ],
      "type": "VEC4"
    },
    {
      "bufferView": 6,
      "byteOffset": 476,
      "componentType": 5126,
      "count": 4,
      "max": [
        1.9666666984558105
      ],
      "min": [
        0
      ],
      "type": "SCALAR"
    },
    {
      "bufferView": 7,
      "byteOffset": 48,
      "componentType": 5126,
      "count": 4,
      "max": [
        1,
        1,
        1
      ],
      "min": [
        1,
        0.99999994039535522,
        0.99999994039535522
      ],
      "type": "VEC3"
    },
    {
      "bufferView": 6,
      "byteOffset": 492,
      "componentType": 5126,
      "count": 114,
      "max": [
        1.9666666984558105
      ],
      "min": [
        0
      ],
      "type": "SCALAR"
    },
    {
      "bufferView": 8,
      "byteOffset": 1840,
      "componentType": 5126,
      "count": 114,
      "max": [
        0.7071068286895752,
        -8.4293695579162886e-08,
        8.4293702684590244e-08,
        1
      ],
      "min": [
        -6.7179414031670603e-08,
        -1.1920927533992653e-07,
        -8.0084136072850268e-15,
        0.70710670948028564
      ],
      "type": "VEC4"
    },
    {
      "bufferView": 6,
      "byteOffset": 948,
      "componentType": 5126,
      "count": 1,
      "max": [
        0
      ],
      "min": [
        0
      ],
      "type": "SCALAR"
    },
    {
      "bufferView": 8,
      "byteOffset": 3664,
      "componentType": 5126,
      "count": 1,
      "max": [
        0,
        0,
        1,
        6.1232342629258393e-17
      ],
      "min": [
        0,
        0,
        1,
        6.1232342629258393e-17
      ],
      "type": "VEC4"
    }
  ],
  "animations": [
    {
      "channels": [
        {
          "sampler": 0,
          "target": {
            "node": 9,
            "path": "scale"
          }
        },
        {
          "sampler": 1,
          "target": {
            "node": 9,
            "path": "rotation"
          }
        },
        {
          "sampler": 2,
          "target": {
            "node": 5,
            "path": "rotation"
          }
        }
      ],
      "name": "Armature|A_Close",
      "samplers": [
        {
          "input": 17,
          "interpolation": "LINEAR",
          "output": 18
        },
        {
          "input": 19,
          "interpolation": "LINEAR",
          "output": 20
        },
        {
          "input": 21,
          "interpolation": "LINEAR",
          "output": 22
        }
      ]
    },
    {
      "channels": [
        {
          "sampler": 0,
          "target": {
            "node": 9,
            "path": "scale"
          }
        },
        {
          "sampler": 1,
          "target": {
            "node": 9,
            "path": "rotation"
          }
        },
        {
          "sampler": 2,
          "target": {
            "node": 5,
            "path": "rotation"
          }
        }
      ],
      "name": "Armature|A_Open",
      "samplers": [
        {
          "input": 23,
          "interpolation": "LINEAR",
          "output": 24
        },
        {
          "input": 25,
          "interpolation": "LINEAR",
          "output": 26
        },
        {
          "input": 27,
          "interpolation": "LINEAR",
          "output": 28
        }
      ]
    }
  ],
  "asset": {
    "extras": {
      "author": "Multipainkiller Studio (https://sketchfab.com/Multipainkiller_Studio)",
      "license": "CC-BY-4.0 (http://creativecommons.org/licenses/by/4.0/)",
      "source": "https://sketchfab.com/models/b124919b7bc3470c82daeef72823f941",
      "title": "Treasure Chest"
    },
    "generator": "Sketchfab-3.19.6",
    "version": "2.0"
  },
  "bufferViews": [
    {
      "buffer": 0,
      "byteLength": 37056,
      "byteOffset": 0,
      "byteStride": 8,
      "name": "shortBufferViews",
      "target": 34962
    },
    {
      "buffer": 0,
      "byteLength": 55056,
      "byteOffset": 37056,
      "name": "floatBufferViews",
      "target": 34963
    },
    {
      "buffer": 0,
      "byteLength": 37056,
      "byteOffset": 92112,
      "byteStride": 8,
      "name": "floatBufferViews",
      "target": 34962
    },
    {
      "buffer": 0,
      "byteLength": 111168,
      "byteOffset": 129168,
      "byteStride": 12,
      "name": "floatBufferViews",
      "target": 34962
    },
    {
      "buffer": 0,
      "byteLength": 222336,
      "byteOffset": 240336,
      "byteStride": 16,
      "name": "floatBufferViews",
      "target": 34962
    },
    {
      "buffer": 0,
      "byteLength": 192,
      "byteOffset": 462672,
      "byteStride": 64,
      "name": "floatBufferViews"
    },
    {
      "buffer": 0,
      "byteLength": 952,
      "byteOffset": 462864,
      "name": "floatBufferViews"
    },
    {
      "buffer": 0,
      "byteLength": 96,
      "byteOffset": 463816,
      "byteStride": 12,
      "name": "floatBufferViews"
    },
    {
      "buffer": 0,
      "byteLength": 3680,
      "byteOffset": 463912,
      "byteStride": 16,
      "name": "floatBufferViews"
    }
  ],
  "buffers": [
    {
      "byteLength": 467592,
      "uri": "scene.bin"
    }
  ],
  "images": [
    {
      "uri": "textures/M_Chest_Reinforcment_baseColor.jpeg"
    },
    {
      "uri": "textures/M_Chest_Reinforcment_normal.png"
    },
    {
      "uri": "textures/M_Chest_Reinforcment_metallicRoughness.png"
    },
    {
      "uri": "textures/M_Chest_Wood_baseColor.jpeg"
    },
    {
      "uri": "textures/M_Chest_Wood_normal.png"
    },
    {
      "uri": "textures/M_Chest_Wood_metallicRoughness.png"
    }
  ],
  "materials": [
    {
      "doubleSided": false,
      "name": "M_Chest_Reinforcment",
      "normalTexture": {
        "index": 1,
        "scale": 1,
        "texCoord": 0
      },
      "occlusionTexture": {
        "index": 2,
        "strength": 1,
        "texCoord": 0
      },
      "pbrMetallicRoughness": {
        "baseColorFactor": [
          1,
          1,
          1,
          1
        ],
        "baseColorTexture": {
          "index": 0,
          "texCoord": 0
        },
        "metallicFactor": 0.83708079270000002,
        "metallicRoughnessTexture": {
          "index": 2,
          "texCoord": 0
        },
        "roughnessFactor": 1
      }
    },
    {
      "doubleSided": false,
      "name": "M_Chest_Wood",
      "normalTexture": {
        "index": 4,
        "scale": 1,
        "texCoord": 0
      },
      "occlusionTexture": {
        "index": 5,
        "strength": 1,
        "texCoord": 0
      },
      "pbrMetallicRoughness": {
        "baseColorFactor": [
          1,
          1,
          1,
          1
        ],
        "baseColorTexture": {
          "index": 3,
          "texCoord": 0
        },
        "metallicFactor": 1,
        "metallicRoughnessTexture": {
          "index": 5,
          "texCoord": 0
        },
        "roughnessFactor": 1
      }
    }
  ],
  "meshes": [
    {
      "name": "SM_Chest_M_Chest_Reinforcment_0",
      "primitives": [
        {
          "attributes": {
            "COLOR_0": 3,
            "JOINTS_0": 13,
            "NORMAL": 1,
            "POSITION": 0,
            "TANGENT": 2,
            "TEXCOORD_0": 4,
            "WEIGHTS_0": 14
          },
          "indices": 5,
          "material": 0,
          "mode": 4
        }
      ]
    },
    {
      "name": "SM_Chest_M_Chest_Wood_0",
      "primitives": [
        {
          "attributes": {
            "COLOR_0": 9,
            "JOINTS_0": 15,
            "NORMAL": 7,
            "POSITION": 6,
            "TANGENT": 8,
            "TEXCOORD_0": 10,
            "WEIGHTS_0": 16
          },
          "indices": 11,
          "material": 1,
          "mode": 4
        }
      ]
    }
  ],
  "nodes": [
    {
      "children": [
        1
      ],
      "name": "RootNode (gltf orientation matrix)",
      "rotation": [
        -0.70710678118654746,
        -0,
        -0,
        0.70710678118654757
      ]
    },
    {
      "children": [
        2
      ],
      "matrix": [
        -1,
        0,
        0,
        0,
        0,
        1,
        0,
        0,
        0,
        0,
        -1,
        0,
        0.0050064558163285255,
        1.3143399883119855e-05,
        -143.32337951660156,
        1
      ],
      "name": "RootNode (model correction matrix)"
    },
    {
      "children": [
        3
      ],
      "matrix": [
        1,
        0,
        0,
        0,
        0,
        -1,
        0,
        0,
        0,
        0,
        -1,
        0,
        0,
        0,
        0,
        1
      ],
      "name": "Chest.fbx"
    },
    {
      "children": [
        4
      ],
      "name": ""
    },
    {
      "children": [
        5,
        13
      ],
      "name": "RootNode"
    },
    {
      "children": [
        6
      ],
      "name": "Armature",
      "rotation": [
        0,
        0,
        1,
        -4.3711388286737929e-08
      ]
    },
    {
      "children": [
        7,
        11,
        12,
        10
      ],
      "name": ""
    },
    {
      "children": [
        8
      ],
      "name": "_rootJoint"
    },
    {
      "children": [
        9
      ],
      "name": "root_00",
      "rotation": [
        0,
        1.1920928244535389e-07,
        0,
        1
      ]
    },
    {
      "name": "top_01",
      "rotation": [
        0.7071068286895752,
        -8.4293688473735529e-08,
        8.4293702684590244e-08,
        0.70710670948028564
      ],
      "scale": [
        1,
        1,
        0.99999994039535522
      ],
      "translation": [
        -2.0265577404643409e-05,
        49.499996185302734,
        85
      ]
    },
    {
      "matrix": [
        -1.0000000000000568,
        1.2246467991474227e-16,
        0,
        0,
        -1.2246467991473532e-16,
        -1,
        0,
        0,
        0,
        0,
        1.0000000000000568,
        0,
        0,
        0,
        0,
        1
      ],
      "name": ""
    },
    {
      "mesh": 0,
      "name": "",
      "skin": 0
    },
    {
      "mesh": 1,
      "name": "",
      "skin": 0
    },
    {
      "name": "SM_Chest",
      "rotation": [
        0,
        0,
        1,
        -4.3711388286737929e-08
      ]
    }
  ],
  "samplers": [
    {
      "magFilter": 9729,
      "minFilter": 9987,
      "wrapS": 10497,
      "wrapT": 10497
    }
  ],
  "scene": 0,
  "scenes": [
    {
      "name": "OSG_Scene",
      "nodes": [
        0
      ]
    }
  ],
  "skins": [
    {
      "inverseBindMatrices": 12,
      "joints": [
        7,
        8,
        9
      ],
      "skeleton": 7
    }
  ],
  "textures": [
    {
      "sampler": 0,
      "source": 0
    },
    {
      "sampler": 0,
      "source": 1
    },
    {
      "sampler": 0,
      "source": 2
    },
    {
      "sampler": 0,
      "source": 3
    },
    {
      "sampler": 0,
      "source": 4
    },
    {
      "sampler": 0,
      "source": 5
    }
  ]
}

